<?xml version="1.0" standalone="no"?>
<!DOCTYPE svg PUBLIC "-//W3C//DTD SVG 20010904//EN"
 "http://www.w3.org/TR/2001/REC-SVG-20010904/DTD/svg10.dtd">
<svg version="1.0" xmlns="http://www.w3.org/2000/svg"
 width="900.000000pt" height="378.000000pt" viewBox="0 0 900.000000 378.000000"
 preserveAspectRatio="xMidYMid meet">
<metadata>
Created by potrace 1.10, written by Peter Selinger 2001-2011
</metadata>
<g transform="translate(0.000000,378.000000) scale(0.100000,-0.100000)"
fill="#000000" stroke="none">
<path d="M2210 3345 c-8 -2 -49 -9 -90 -15 -170 -27 -438 -135 -580 -233 -146
-101 -353 -308 -458 -458 -99 -141 -215 -439 -228 -586 -4 -40 -11 -76 -15
-79 -5 -3 -121 -5 -258 -4 -216 0 -251 -2 -265 -15 -13 -14 -16 -43 -16 -169
0 -116 3 -156 13 -165 9 -7 102 -12 272 -13 l259 -3 13 -90 c13 -95 28 -156
63 -245 12 -30 25 -67 30 -81 4 -14 12 -34 18 -45 6 -10 20 -39 31 -64 58
-128 218 -321 398 -482 154 -137 253 -197 443 -271 201 -78 284 -92 555 -92
293 0 375 15 620 116 44 18 87 38 96 46 8 7 19 13 22 13 12 0 110 62 172 109
117 88 267 238 356 356 170 224 276 502 294 770 19 290 55 387 193 517 208
195 477 195 684 0 137 -129 174 -229 193 -517 15 -214 85 -434 201 -632 122
-208 367 -456 559 -569 27 -16 59 -34 70 -41 11 -7 27 -15 35 -19 8 -4 43 -19
78 -35 34 -16 66 -29 72 -29 5 0 24 -6 42 -14 131 -55 242 -71 498 -71 317 0
430 25 705 156 109 52 175 97 298 207 180 161 340 354 398 482 11 25 25 54 31
64 6 11 14 31 18 45 5 14 18 51 30 81 35 89 50 150 63 245 l13 90 259 3 c170
1 263 6 272 13 10 9 13 49 13 165 0 126 -3 155 -16 169 -14 13 -49 15 -265 15
-137 -1 -253 1 -258 4 -5 3 -12 41 -16 83 -4 43 -13 94 -20 113 -7 19 -22 64
-33 100 -45 143 -120 294 -195 395 -78 103 -309 334 -412 412 -103 77 -290
167 -454 219 -91 29 -235 43 -436 44 -248 0 -362 -16 -483 -66 -18 -8 -37 -14
-42 -14 -9 0 -87 -34 -180 -78 -144 -69 -275 -174 -451 -358 -54 -58 -169
-204 -182 -234 -4 -8 -17 -31 -28 -50 -12 -19 -33 -56 -46 -82 -14 -27 -30
-48 -37 -48 -6 0 -56 30 -112 68 -204 137 -312 172 -524 172 -211 0 -324 -37
-522 -171 -94 -64 -123 -72 -138 -36 -11 24 -14 30 -80 132 -135 210 -360 436
-555 557 -54 34 -168 94 -191 101 -11 3 -44 15 -74 26 -68 26 -190 56 -295 71
-76 12 -393 23 -425 15z m425 -371 c123 -24 206 -52 319 -109 346 -174 593
-524 647 -915 12 -89 7 -293 -9 -385 -24 -131 -88 -300 -152 -400 -11 -16 -23
-37 -27 -45 -32 -72 -215 -256 -329 -331 -170 -114 -346 -179 -556 -206 -178
-23 -316 -8 -521 58 -32 11 -65 23 -75 28 -9 5 -51 26 -92 46 -228 114 -422
307 -527 525 -53 109 -70 158 -108 309 -23 89 -23 379 0 476 34 145 94 298
158 400 96 154 276 326 442 422 40 23 166 83 174 83 5 0 22 7 37 15 16 8 37
15 47 15 10 0 28 5 40 12 53 28 384 29 532 2z m4235 -4 c115 -31 167 -52 302
-123 156 -82 343 -259 445 -422 28 -44 113 -225 113 -239 0 -8 6 -30 14 -48
33 -77 47 -182 47 -357 -1 -174 -5 -203 -48 -351 -90 -306 -319 -579 -603
-720 -36 -18 -73 -36 -83 -41 -25 -13 -98 -37 -186 -62 -66 -18 -103 -21 -286
-21 -168 0 -220 3 -260 16 -27 9 -61 18 -75 21 -83 16 -239 89 -355 166 -98
64 -250 219 -317 321 -143 220 -215 455 -211 695 1 99 20 223 48 320 70 245
230 476 435 631 82 62 86 64 195 118 130 65 247 102 365 117 112 13 375 2 460
-21z"/>
</g>
</svg>
